<svg width="92" height="56" viewBox="0 0 92 56" fill="none" xmlns="http://www.w3.org/2000/svg">
<path d="M33.702 22V5.67H40.625C41.3763 5.67 42.0663 5.82333 42.695 6.13C43.3237 6.43667 43.868 6.85067 44.328 7.372C44.8033 7.89333 45.1713 8.476 45.432 9.12C45.6927 9.764 45.823 10.4233 45.823 11.098C45.823 12.018 45.6083 12.892 45.179 13.72C44.7497 14.548 44.1593 15.2227 43.408 15.744C42.6567 16.2653 41.7673 16.526 40.74 16.526H36.876V22H33.702ZM36.876 13.743H40.556C40.9393 13.743 41.2843 13.6357 41.591 13.421C41.8977 13.2063 42.143 12.8997 42.327 12.501C42.511 12.087 42.603 11.6193 42.603 11.098C42.603 10.5307 42.4957 10.0477 42.281 9.649C42.0817 9.25033 41.8133 8.95133 41.476 8.752C41.154 8.55267 40.8013 8.453 40.418 8.453H36.876V13.743ZM46.7479 18.435C46.7479 17.653 46.9625 16.9707 47.3919 16.388C47.8365 15.79 48.4499 15.33 49.2319 15.008C50.0139 14.686 50.9109 14.525 51.9229 14.525C52.4289 14.525 52.9425 14.5633 53.4639 14.64C53.9852 14.7167 54.4375 14.8393 54.8209 15.008V14.364C54.8209 13.5973 54.5909 13.007 54.1309 12.593C53.6862 12.179 53.0192 11.972 52.1299 11.972C51.4705 11.972 50.8419 12.087 50.2439 12.317C49.6459 12.547 49.0172 12.8843 48.3579 13.329L47.3689 11.305C48.1662 10.7837 48.9789 10.3927 49.8069 10.132C50.6502 9.87133 51.5319 9.741 52.4519 9.741C54.1692 9.741 55.5032 10.1703 56.4539 11.029C57.4199 11.8877 57.9029 13.1143 57.9029 14.709V18.55C57.9029 18.872 57.9565 19.102 58.0639 19.24C58.1865 19.378 58.3782 19.4623 58.6389 19.493V22C58.3629 22.046 58.1099 22.0843 57.8799 22.115C57.6652 22.1457 57.4812 22.161 57.3279 22.161C56.7145 22.161 56.2469 22.023 55.9249 21.747C55.6182 21.471 55.4265 21.1337 55.3499 20.735L55.2809 20.114C54.7595 20.7887 54.1079 21.31 53.3259 21.678C52.5439 22.046 51.7465 22.23 50.9339 22.23C50.1365 22.23 49.4159 22.069 48.7719 21.747C48.1432 21.4097 47.6449 20.9573 47.2769 20.39C46.9242 19.8073 46.7479 19.1557 46.7479 18.435ZM54.2459 19.056C54.4145 18.872 54.5525 18.688 54.6599 18.504C54.7672 18.32 54.8209 18.1513 54.8209 17.998V16.779C54.4529 16.6257 54.0542 16.5107 53.6249 16.434C53.1955 16.342 52.7892 16.296 52.4059 16.296C51.6085 16.296 50.9492 16.4723 50.4279 16.825C49.9219 17.1623 49.6689 17.6147 49.6689 18.182C49.6689 18.4887 49.7532 18.78 49.9219 19.056C50.0905 19.332 50.3359 19.5543 50.6579 19.723C50.9799 19.8917 51.3632 19.976 51.8079 19.976C52.2679 19.976 52.7202 19.8917 53.1649 19.723C53.6095 19.539 53.9699 19.3167 54.2459 19.056ZM65.4979 22.069C64.7005 22.069 63.9645 21.9157 63.2899 21.609C62.6305 21.287 62.0555 20.8423 61.5649 20.275C61.0895 19.7077 60.7215 19.056 60.4609 18.32C60.2002 17.584 60.0699 16.802 60.0699 15.974C60.0699 15.1 60.2079 14.2873 60.4839 13.536C60.7599 12.7847 61.1432 12.1253 61.6339 11.558C62.1399 10.9753 62.7302 10.5307 63.4049 10.224C64.0949 9.902 64.8539 9.741 65.6819 9.741C66.6172 9.741 67.4375 9.95567 68.1429 10.385C68.8482 10.799 69.4309 11.3587 69.8909 12.064V9.948H72.5819V21.425C72.5819 22.621 72.2905 23.6407 71.7079 24.484C71.1405 25.3427 70.3509 25.9943 69.3389 26.439C68.3269 26.899 67.1769 27.129 65.8889 27.129C64.5855 27.129 63.4815 26.9067 62.5769 26.462C61.6722 26.0327 60.8979 25.4193 60.2539 24.622L61.9329 22.989C62.3929 23.5563 62.9679 24.001 63.6579 24.323C64.3632 24.645 65.1069 24.806 65.8889 24.806C66.5482 24.806 67.1462 24.6833 67.6829 24.438C68.2349 24.208 68.6719 23.84 68.9939 23.334C69.3312 22.8433 69.4999 22.207 69.4999 21.425V19.907C69.1012 20.597 68.5339 21.1337 67.7979 21.517C67.0772 21.885 66.3105 22.069 65.4979 22.069ZM66.5329 19.608C66.8702 19.608 67.1922 19.5543 67.4989 19.447C67.8055 19.3397 68.0892 19.194 68.3499 19.01C68.6105 18.826 68.8405 18.6113 69.0399 18.366C69.2392 18.1053 69.3926 17.8447 69.4999 17.584V14.709C69.3159 14.2337 69.0552 13.8197 68.7179 13.467C68.3959 13.1143 68.0279 12.846 67.6139 12.662C67.2152 12.4627 66.7935 12.363 66.3489 12.363C65.8735 12.363 65.4442 12.4627 65.0609 12.662C64.6775 12.8613 64.3479 13.145 64.0719 13.513C63.7959 13.8657 63.5812 14.2643 63.4279 14.709C63.2899 15.1383 63.2209 15.5907 63.2209 16.066C63.2209 16.5567 63.3052 17.0167 63.4739 17.446C63.6425 17.8753 63.8725 18.251 64.1639 18.573C64.4705 18.895 64.8232 19.148 65.2219 19.332C65.6359 19.516 66.0729 19.608 66.5329 19.608ZM80.926 22.23C79.9447 22.23 79.063 22.069 78.281 21.747C77.499 21.4097 76.832 20.9497 76.28 20.367C75.7434 19.7843 75.3294 19.1173 75.038 18.366C74.7467 17.6147 74.601 16.825 74.601 15.997C74.601 15.1537 74.7467 14.3563 75.038 13.605C75.3294 12.8537 75.7434 12.1867 76.28 11.604C76.832 11.0213 77.499 10.569 78.281 10.247C79.063 9.90967 79.9447 9.741 80.926 9.741C81.9074 9.741 82.7814 9.90967 83.548 10.247C84.33 10.569 84.997 11.0213 85.549 11.604C86.101 12.1867 86.515 12.8537 86.791 13.605C87.0824 14.3563 87.228 15.1537 87.228 15.997C87.228 16.825 87.0824 17.6147 86.791 18.366C86.515 19.1173 86.101 19.7843 85.549 20.367C85.0124 20.9497 84.353 21.4097 83.571 21.747C82.789 22.069 81.9074 22.23 80.926 22.23ZM77.775 15.997C77.775 16.7023 77.913 17.331 78.189 17.883C78.465 18.4197 78.8407 18.8413 79.316 19.148C79.7914 19.4547 80.328 19.608 80.926 19.608C81.5087 19.608 82.0377 19.4547 82.513 19.148C82.9884 18.826 83.364 18.3967 83.64 17.86C83.9314 17.308 84.077 16.6793 84.077 15.974C84.077 15.284 83.9314 14.663 83.64 14.111C83.364 13.559 82.9884 13.1297 82.513 12.823C82.0377 12.5163 81.5087 12.363 80.926 12.363C80.328 12.363 79.7914 12.524 79.316 12.846C78.8407 13.1527 78.465 13.582 78.189 14.134C77.913 14.6707 77.775 15.2917 77.775 15.997ZM47.019 50V39.282L42.833 47.263H41.062L36.876 39.282V50H33.702V33.67H37.106L41.936 42.962L46.812 33.67H50.193V50H47.019ZM58.6672 50.23C57.6859 50.23 56.8042 50.069 56.0222 49.747C55.2402 49.4097 54.5732 48.9497 54.0212 48.367C53.4846 47.7843 53.0706 47.1173 52.7792 46.366C52.4879 45.6147 52.3422 44.825 52.3422 43.997C52.3422 43.1537 52.4879 42.3563 52.7792 41.605C53.0706 40.8537 53.4846 40.1867 54.0212 39.604C54.5732 39.0213 55.2402 38.569 56.0222 38.247C56.8042 37.9097 57.6859 37.741 58.6672 37.741C59.6486 37.741 60.5226 37.9097 61.2892 38.247C62.0712 38.569 62.7382 39.0213 63.2902 39.604C63.8422 40.1867 64.2562 40.8537 64.5322 41.605C64.8236 42.3563 64.9692 43.1537 64.9692 43.997C64.9692 44.825 64.8236 45.6147 64.5322 46.366C64.2562 47.1173 63.8422 47.7843 63.2902 48.367C62.7536 48.9497 62.0942 49.4097 61.3122 49.747C60.5302 50.069 59.6486 50.23 58.6672 50.23ZM55.5162 43.997C55.5162 44.7023 55.6542 45.331 55.9302 45.883C56.2062 46.4197 56.5819 46.8413 57.0572 47.148C57.5326 47.4547 58.0692 47.608 58.6672 47.608C59.2499 47.608 59.7789 47.4547 60.2542 47.148C60.7296 46.826 61.1052 46.3967 61.3812 45.86C61.6726 45.308 61.8182 44.6793 61.8182 43.974C61.8182 43.284 61.6726 42.663 61.3812 42.111C61.1052 41.559 60.7296 41.1297 60.2542 40.823C59.7789 40.5163 59.2499 40.363 58.6672 40.363C58.0692 40.363 57.5326 40.524 57.0572 40.846C56.5819 41.1527 56.2062 41.582 55.9302 42.134C55.6542 42.6707 55.5162 43.2917 55.5162 43.997ZM59.6792 36.545L57.7012 35.947L58.9432 33.21H61.8182L59.6792 36.545ZM69.8882 50L65.4492 37.948H68.6462L71.6822 47.194L74.7412 37.948H77.6622L73.2462 50H69.8882ZM79.2907 50V37.948H82.3727V50H79.2907ZM79.2907 36.269V33.21H82.3727V36.269H79.2907ZM85.13 33.21H88.212V46.136C88.212 46.688 88.304 47.0637 88.488 47.263C88.672 47.447 88.925 47.539 89.247 47.539C89.4923 47.539 89.7453 47.5083 90.006 47.447C90.2667 47.3857 90.4967 47.309 90.696 47.217L91.11 49.563C90.696 49.7623 90.213 49.9157 89.661 50.023C89.109 50.1303 88.6107 50.184 88.166 50.184C87.2 50.184 86.4487 49.931 85.912 49.425C85.3907 48.9037 85.13 48.1677 85.13 47.217V33.21Z" fill="white"/>
<path d="M15.8124 12H2.33163C1.04147 12 0 13.0461 0 14.334V41.7088C0 42.9954 1.04147 44.0404 2.33163 44.0404H15.8124C17.1002 44.0404 18.144 42.9954 18.144 41.7088V14.334C18.144 13.0461 17.1002 12 15.8124 12ZM5.7456 13.4174H12.4007C12.5689 13.4174 12.7055 13.6685 12.7055 13.979C12.7055 14.2896 12.5689 14.5418 12.4007 14.5418H5.7456C5.5763 14.5418 5.44204 14.2896 5.44204 13.979C5.44204 13.6685 5.5763 13.4174 5.7456 13.4174ZM9.07317 41.7368C8.25237 41.7368 7.58452 41.0689 7.58452 40.247C7.58452 39.425 8.25237 38.7595 9.07317 38.7595C9.89164 38.7595 10.5595 39.425 10.5595 40.247C10.5595 41.0689 9.89164 41.7368 9.07317 41.7368ZM16.3973 36.6357H1.74785V15.9382H16.3973V36.6357Z" fill="#CDCDCD"/>
</svg>
